<?xml version="1.0" encoding="UTF-8"?>
<svg id="Capa_1" data-name="Capa 1" xmlns="http://www.w3.org/2000/svg" version="1.1" viewBox="0 0 1440 1440">
  <defs>
    <style>
      .cls-1 {
        fill: #111d2b;
      }

      .cls-1, .cls-2, .cls-3, .cls-4, .cls-5, .cls-6, .cls-7, .cls-8 {
        stroke-width: 0px;
      }

      .cls-2 {
        fill: #febd7a;
      }

      .cls-3 {
        fill: #111d29;
      }

      .cls-4 {
        fill: #fd994a;
      }

      .cls-5 {
        fill: #fe712c;
      }

      .cls-6 {
        fill: #fc8843;
      }

      .cls-7 {
        fill: #fe8e33;
      }

      .cls-8 {
        fill: #fe8e30;
      }
    </style>
  </defs>
  <path class="cls-3" d="M1231.75,1121.02c16.51-11.18,28.21-26.42,41.56-40.27,8.19-8.5,16.04-17.35,25.05-25.09,32.56-27.98,74.07-31.44,108.22-9.56,31.81,20.38,42.69,61.6,24.85,96.58-11.49,22.53-29.5,41.14-47.34,59.55-105.97,109.35-237.46,181.49-392.94,217.43-94.73,21.9-190.93,24.01-288.11,16.21-113.45-9.11-218.67-39.69-315.68-93.11-189.62-104.42-312.48-254.27-367.24-448.7C.61,824.75-2.37,753.57,1.43,682.04c5.3-99.6,31.99-193.97,82.12-282.56C194.61,203.18,366.39,72.3,604.68,22.27c287.32-60.33,540.75,1.66,753.82,189.21,25.62,22.55,49.84,46.16,68.72,73.9,22.49,33.05,12.51,72.19-13,94.28-27.77,24.05-71.84,26.22-106.46,5.85-13.94-8.2-25.25-18.85-36.57-29.64-8.95-8.53-18.42-16.62-27.66-24.9-7.71-1.51-12.45-6.81-17.79-11.37-104.51-89.19-227.05-142.99-370.91-155.95-173.74-15.65-325.96,30.96-458.94,130.69-101.08,75.81-169.31,171.81-204.27,286.61-10.88,35.72-15.71,72.45-20,109.21-3.89,20.39-2.53,41-1.44,61.38,3.88,72.49,21.36,142.45,56.39,207.78,25.28,47.14,58.27,89.98,97.46,129.17,46.13,46.13,98.25,85.09,157.71,115.81,77.18,39.86,159.26,66.14,248.66,73.33,68.45,5.51,135.79,1.45,202.77-11.13,109.02-21.77,202.69-69.58,284.56-137.38,4.16-3.44,7.82-7.56,14.02-8.11Z"/>
  <path class="cls-7" d="M168.11,689.66c8.86-123.57,57.77-232.39,145.91-327.19,73.83-79.41,164.03-137.48,271.9-172.53,86.65-28.15,175.41-39.38,267.96-30.99,134.42,12.19,249.89,61.57,352.74,138.21,13.45,10.02,24.67,22.49,36.92,33.82-43.58,19.29-85.52,40.83-120.94,71.44-10.16,8.78-20.58,17.32-30.88,25.96-9.84,1.1-15.75-5.39-21.79-10.28-48.88-39.64-106.92-63-169.42-78.23-92.34-22.49-181.87-14.48-268.55,21.53-110.48,45.9-187.24,120.46-229.95,223.25-15.45,37.18-21.46,76.4-24.38,115.91-.69,9.27-2.25,18.3-4.32,27.34-.94,2.5-2.16,4.79-5.16,5.79-25.69-8.36-52.96-9.9-79.44-14.76-35.42-6.5-71.25-11.12-107.15-15.17-8.58-.97-17.9-2.47-13.44-14.11Z"/>
  <path class="cls-1" d="M368.17,732.52c.5-1.88,1-3.76,1.49-5.64,14.88-24.19,39.12-33.59,68.21-34.84,5.84-.25,12.64-1.14,16.36,5.07,34,6.34,55.01,28.35,75.26,51.18,25.19,28.41,52.23,55.27,80.1,81.58,105.1,99.21,287.38,99.72,396.75-10.93,25.68-25.98,50.91-52.31,76.32-78.51,9.72-10.03,19.36-20.1,31.39-28.03,33.15-21.86,71.41-21.7,101.84.46,27.84,20.28,37.02,57.21,20.24,88.98-17.84,33.78-42.28,63.95-67.19,93.7-31.96,38.17-69.24,71.48-112.34,99.37-7.27,10.71-19.97,14.96-31.26,20.33-56.73,26.97-117.2,42.31-180.93,49.13-53.75,5.75-106.05.25-158.26-9.82-37.6-6.62-71.53-21.47-105.16-37.49-75.19-35.8-131.7-89.07-177.48-152.68-4.32-6-8.84-11.89-13.53-17.68-16.34-21.9-33.82-43.42-36.15-71.01-1.34-15.86.22-31.34,14.36-43.19Z"/>
  <path class="cls-1" d="M1057.04,464.48c17.81,16.33,38,30.72,49.4,52.14,17.94,33.72,9.71,73.98-20.18,96.23-29.61,22.04-73.18,21.68-106.61-.81-21.78-14.65-40.77-32.36-63.6-45.97-79.34-47.3-168.38-43.89-241.88,10.15-15.8,11.61-30.34,24.7-46.64,35.66-55.35,37.22-125.57,13.91-140.24-46.08-7.33-4.84-5.69-11.51-4.83-18.21,4.23-32.66,24.35-56.83,50.76-77.5,55.33-43.29,116.87-76.59,189.51-89.04,120.29-20.61,229.61,1.63,325.33,72.5,4.04,2.99,7.44,6.29,8.97,10.91Z"/>
  <path class="cls-8" d="M1231.75,1121.02c-40.21,42.2-91.98,70.58-144.72,97.32-47.39,24.03-97.36,42.79-151.43,51.09-22.58-9.51-39.93-25.71-60.01-38.42-47.94-30.33-88.16-68.72-131.72-103.62-6.4-5.13-11.42-11.37-15.69-18.05-2-3.12-3.99-6.68,1.82-8.69,29.45,1.02,58.89.57,88.33.7,53.6.24,103.72-13.71,153.28-30.25,31.02-10.36,59.56-24.81,86.92-41.43,8.46-5.14,17.52-10.63,27.18-1.41,41.81,39.76,91.42,69.49,146.04,92.76Z"/>
  <path class="cls-2" d="M1057.04,464.48c-49.41-36.9-103.51-65.92-166.91-77.93-147.58-27.95-272.31,11.23-376.44,107.49-20.93,19.35-29.89,44.16-26.39,71.78-12.31,20.81-17.04,43.79-22.12,66.5-4.79,21.39-7.38,43.17-10.94,64.79-35.18-6.33-61.39,8.2-84.56,29.78,6.17-39.81,7.65-80.1,19.74-119.29,15.93-51.65,42.3-98.02,80.33-138.78,34.44-36.9,73.15-69.98,120.2-93.45,51.18-25.53,105.42-42.97,164.16-49.51,60.27-6.71,118.44.63,175.24,17.15,57.91,16.85,110.96,42.49,155.55,80.88,2.03,1.74,4.54,3.02,6.83,4.51-11.56,12.03-23.12,24.06-34.68,36.09Z"/>
  <path class="cls-4" d="M1085.72,1028.27c-12.99-6.49-22.36,2.52-30.26,8.09-27.48,19.36-58.92,33.33-90.68,42.87-48.14,14.46-97.35,29.35-149.78,26.48-29.3-1.6-58.88,3.16-87.99-3.04-3.62,1.45-6.36-.32-9.14-2.02-11.73-8.83-20.67-19.94-29.53-30.95-4.27-5.3-10.56-11.13-5.54-19.08,22.99,1.37,45.22,7.04,68.13,9.5,59.97,6.42,118.07-.69,175.87-14.17,46.31-10.8,88.54-29.87,129.8-51.04,6.99,13.06,21.35,20.85,29.12,33.35Z"/>
  <path class="cls-5" d="M720.22,1099.49c2.26,1.06,4.52,2.11,6.78,3.17,31.2,34.27,68.24,63.09,105.1,92.06,29.64,23.29,60.96,44.62,93.37,64.67,4.02,2.49,6.78,6.66,10.12,10.05-66.43,14.87-133.55,17.19-201.72,12.6-92.97-6.26-178.11-33.67-257.34-75.85-126.36-67.27-219.75-161.68-273.14-286.07-30.28-70.55-41.05-144.47-37.49-220.05.17-3.49,1.45-6.95,2.21-10.41-.06,7.09,3.91,9.04,11.58,9.66,59.18,4.77,116.87,18.51,175.89,24.29,6.89.67,9.36,4.85,12.59,8.92-16.41,28.94-12.19,56.8,5.47,83.91,6.53,10.01,13.24,19.92,19.87,29.88,8.05,13.82,15.21,27.33,18.87,43.39,8.5,37.37,35.38,66.11,63.97,92.78,64.27,59.94,142.02,97.74,232.84,113.27,3.95.68,7.73,1.59,11.03,3.75Z"/>
  <path class="cls-6" d="M720.22,1099.49c-32.32.2-61.96-10.68-91.34-20.32-59.17-19.42-109.6-51.93-153.78-92.2-30.85-28.12-59.1-58.95-67.65-98.55-3.21-14.88-11.18-27.64-13.94-42.11,27.25,33.03,52.36,67.55,84.5,97.14,51.87,47.77,114.66,79.47,183.69,101.46,6.51,2.07,12.78,8.16,21.09,5.71,5.58,20.61,24.73,32.72,37.43,48.87Z"/>
</svg>