<svg id="Capa_1" data-name="Capa 1" xmlns="http://www.w3.org/2000/svg" viewBox="0 0 1243.29 830.86"><defs><style>.cls-1,.cls-3{fill:#db9600;}.cls-2{fill:#ffc73b;}.cls-2,.cls-3{stroke:#211915;stroke-miterlimit:10;stroke-width:5px;}.cls-4{fill:#fff;}.cls-5{fill:#e7e7e7;}.cls-6{fill:#b1010d;}.cls-7{fill:#b1020e;}.cls-8{fill:#01637c;}.cls-9{fill:#001e26;}.cls-10{fill:#fefefe;}</style></defs><title>Logo Rumers</title><path class="cls-1" d="M680.39,724.54c-2.85,6.48-3,13.67-4.37,20.52-2,10-3.78,20.11-5.53,30.19-.84,4.86-3.2,8.75-7.21,10.59-14.35,6.56-28.44,13.94-43.32,19-8,2.73-14.69-1.85-16.62-10.72-3.27-15-6.39-30.12-9.57-45.19a5.37,5.37,0,0,1-1.14-4.71c.24,3.2-.57,6.87.16,10.57q1.26,63.38,2.51,126.77c.19,9.53-3.08,14.8-11.29,18.31-15.35,6.56-30.67,13.19-46,19.72-3.48,1.48-7,3.11-10.87,2.52-7.6-1.18-11.63-6.5-12.34-16-.09-1.29,0-2.61,0-3.91q0-211,0-422.08c0-13.1,2.38-16.94,13.44-21.68,17-7.3,34.09-14.44,51-22,10.65-4.75,19.42.31,21.9,12.38,10.88,52.89,22.24,105.67,33.44,158.49.23,1.07.7,2.07,1.32,3.89,5.32-29.76,10.49-58.68,15.67-87.59q10.83-60.44,21.61-120.88c1.11-6.29,4.4-10.22,9.52-12.57,18.65-8.56,37.28-17.19,56-25.47,11.37-5,20.19,1.71,20.19,15.12q0,214.47,0,428.93c0,8.14-3.12,13.94-10.29,17.14-16.09,7.18-32.1,14.57-48.17,21.81-3,1.37-6.13,2.67-9.56,2-8.53-1.56-12.52-6.73-12.36-16.68.39-25.95.91-51.89,1.4-77.83.18-9.63.42-19.25.63-28.87.51-3-.28-5.92.42-8.78-.56-.15-.2,0-.19.29C680.84,720.08,680.48,722.3,680.39,724.54Z" transform="translate(-85.71 -195.14)"/><path class="cls-1" d="M296.86,734.16q0-89.13,0-178.25a33.33,33.33,0,0,1,1.24-10.13c1.33-4.26,3.94-7.27,8-8.47,17.36-5.1,34.79-10,52.09-15.29,11-3.41,18.9,3.64,19.18,15.83,0,1.31,0,2.62,0,3.92V886.52c0,10.54,0,10.56,9.2,7.46,5.73-1.92,11.42-4,17.16-5.87,8.58-2.83,12.69-9.31,13.19-18.78.13-2.44.1-4.89.1-7.34q0-172.38,0-344.75c0-12.47,2.31-15.9,13.17-20,15.3-5.79,30.55-11.7,45.85-17.47,3.08-1.16,6.21-2.62,9.6-2,7.37,1.45,10.88,5.78,11.73,14.34a28.59,28.59,0,0,1,.07,2.93q0,176.3-.09,352.59c0,21.26-3.8,41.87-12.44,61.09-10.71,23.84-27.63,41-50.24,50.79-22.85,9.85-46.24,18.37-70.42,23.48-30.94,6.54-55.79-10-63.44-44.57a172.49,172.49,0,0,1-4-37.8Q296.93,817.41,296.86,734.16Z" transform="translate(-85.71 -195.14)"/><path class="cls-1" d="M1248.46,528.35c0-12.4-.13-24.81.08-37.21.07-3.77-1.1-5.94-4.12-7.69-16.58-9.6-34.11-16.86-51.41-24.67-7.61-3.43-15.29-6.71-22.92-10.12q-23.83-10.65-27.89-38.32a127,127,0,0,1-1.74-18.47c0-31.5-.16-63,.06-94.49.11-16.28,2.8-32.2,9-47.11,9.33-22.66,25.09-38.07,47-45.23,22.57-7.37,46-10.9,69.36-9.65,33.73,1.81,52.92,20.93,60.27,56.66a132.86,132.86,0,0,1,2.82,27.65c-.06,13.22,0,26.44,0,39.66,0,11.66-5.5,17.77-16.27,18q-23.67.53-47.25,2.74c-10,.95-16.76-5.57-16.89-16.6-.13-11.75,0-23.5,0-35.25a54.19,54.19,0,0,0-.39-5.84c-.31-2.69-1.73-3.83-4.29-3.87a69.47,69.47,0,0,0-14.33,1.53c-5.27,1-7.61,4.21-8.18,10.15-.31,3.24-.32,6.52-.33,9.77,0,21.88.08,43.75-.09,65.61,0,4.14,1.12,6.57,4.65,8.27q28,13.41,55.84,27.17a196.4,196.4,0,0,1,25.52,15.41c15.71,11,21.55,27.67,21.77,46.8.42,37.37.61,74.75-.07,112.11-.31,17-4.15,33.6-13.21,48.11-10.67,17.09-25.9,26.58-44.08,31.37-17,4.48-34.49,5-51.69,7.83a82.45,82.45,0,0,1-32.66-.81c-22.72-5.38-35.68-21.13-42-44.58-5.06-18.79-4.8-38.06-4.42-57.3.18-9.15,4.32-14,12.53-15.86q25.1-5.82,50.49-9.81c10.45-1.64,17.07,4.55,17.36,16.07.19,7.34,0,14.69.09,22,.12,6.64.72,7.24,6.89,6.92,3.75-.2,7.48-.69,11.2-1.21,7-1,9.11-3.39,9.33-11.1.18-6,.07-12.08.07-18.11Q1248.47,538.63,1248.46,528.35Z" transform="translate(-85.71 -195.14)"/><path class="cls-1" d="M941.28,504.44V293.36c0-12.62,2.68-16.7,13.62-20.86,35.1-13.37,70.39-26.06,106.36-36.39,10.09-2.89,20.24-4,30.73-1.73,21,4.56,32.81,19,38.27,40.53a128.17,128.17,0,0,1,4,31.89c-.11,38.2.3,76.41-.24,114.6-.32,22.75-4.7,44.67-16.75,64a68.85,68.85,0,0,1-10.71,13.81c-2.14,2-2.38,3.93-1.75,6.8q17.16,78.15,34.14,156.35c2,9.12-1.87,16.09-10.26,18.38-16.72,4.55-33.44,9.13-50.17,13.62-7,1.87-14-2.93-15.69-10.67q-15.35-71.85-30.73-143.69c-.38-1.77.52-5.12-2.45-5-5.25.15-7.65,2.57-7.65,6.84q0,77.38,0,154.76c0,13-2.76,17-13.92,21.06-14.94,5.41-29.91,10.71-44.71,16.54S941,730.57,941.28,717c0-.81,0-1.63,0-2.44Z" transform="translate(-85.71 -195.14)"/><path class="cls-1" d="M85.71,794.29V581.76c0-13.27,4.21-18.52,16.52-19.1q43-2,85.69-8.37c11.14-1.64,22.18-4.55,33.53-3.9,10.75.61,21.17,2.85,30.46,9.17,14.24,9.69,20.87,24.59,24.13,41.82a141.49,141.49,0,0,1,2.57,26.22q0,53.63,0,107.25c0,19.26-2.81,38-9.74,55.83A75.64,75.64,0,0,1,251,817.92c-2.12,2.05-2.49,3.79-1.89,6.56q12.44,57,24.75,114.08c3.15,14.58,6.22,29.19,9.47,43.74,1.74,7.8-2.68,16.9-10.49,18.51-16.51,3.4-32.92,7.28-49.42,10.74-8.37,1.76-14.73-3-16.63-12.15q-15.45-74.56-30.81-149.17c-1.29-6.23-2.76-7.09-8.54-5.07-1.19.42-1.27,1.09-1.28,2.09s0,2.28,0,3.42V1003c0,13.26-4.65,18.46-16.79,19.62-15.27,1.46-30.55,2.53-45.86,3.37-11.6.63-17.73-5.45-17.73-18.16Q85.7,901,85.71,794.29Z" transform="translate(-85.71 -195.14)"/><path class="cls-1" d="M856.73,693.45c19.15-7.92,37.64-15.58,56.14-23.2,3.35-1.38,6.74-3.06,10.42-2.55,7.87,1.11,12.23,6.27,12.34,15.21.19,16.81.16,33.62,0,50.43-.08,7.54-3.36,12.88-10.14,15.6-43,17.26-85.61,35.9-128.07,54.79-12.2,5.43-21.28-1.72-21.29-16.54q0-87.9,0-175.79V363.14c0-12.77,2.37-16.49,13.26-21.36,41-18.37,82.26-36.27,123.9-53,3.22-1.3,6.45-2.8,10-2.17,8,1.41,12.23,6.34,12.33,15.26q.27,25.22,0,50.43c-.07,7.35-3.25,12.49-9.88,15.22-21.88,9-43.65,18.29-65.54,27.27-2.74,1.12-3.56,2.48-3.55,5.57q.15,45.78,0,91.56c0,4,.59,4.56,4.1,3,14.33-6.25,28.77-12.21,43.23-18.12,3.18-1.3,6.41-2.82,10-2.28,8.14,1.21,12.58,6.27,12.69,15.41q.29,25,0,49.95c-.07,7.45-3,12.81-10,15.63-19,7.69-37.76,15.86-56.69,23.66-2.5,1-3.35,2.23-3.35,5.16.11,35.42.07,70.84.07,106.26Z" transform="translate(-85.71 -195.14)"/><path class="cls-2" d="M528.57,476.24c-.41-4.46,3.74-4.6,5.55-5.19,15.8-5.2,30.64-13,45.89-19.64,7.18-3.15,7.18-3.45,8.93,4.54,3.36,15.31,6.6,30.65,9.88,46q5.43,25.38,10.85,50.78c3.22,15.12,6.79,30.17,9.46,45.4,1.74,9.91,3.59,19.9,5.89,29.56,2.42,10.17,4.43,20.55,7,30.71,1.59,6.45,4.32,13.23,3.52,20.41,0,.4.75.92,1.43,1.69,2.57-13.67,5.09-27.11,7.61-40.54.85-1.78-.44-3.93.83-5.63,1.91-10.89,3.64-21.81,5.8-32.64,1.84-9.21,3.13-18.53,5-27.74,1.28-6.2,2.82-12.5,3.15-18.91.2-3.89,2.08-7.26,2.33-11.07.84-1.78-.44-3.93.82-5.64,1.92-10.88,3.64-21.81,5.8-32.63,1.84-9.22,3.14-18.54,5-27.75,1.27-6.2,2.81-12.49,3.15-18.9.2-3.89,2.07-7.26,2.33-11.08.84-1.78-.44-3.92.82-5.63,1.87-10.49,3.9-20.94,5.52-31.47.66-4.29,1.41-7.54,6-8.76,4.06-1.08,7.85-3.33,11.76-5.06a40.21,40.21,0,0,1,5.49-2.75c4.85-2.53,9.8-5.35,14.77-6.9,6.91-2.16,12.61-7,19.54-8.74,1.74-1,2.92-.71,3,1.68.07,1.31,0,2.61,0,3.92q0,210.48,0,421c0,1.75.45,3.59-.46,5.26-10.62,6.55-22.1,11-33.35,16-6.66,2.95-13.19,6.22-20.39,9.64,1.21-18.77.56-36.86,1.41-54.9.56-11.69.89-23.41.71-35.07-.25-16.7,1.33-33.33.67-50.06-.53-13.48,1.15-27,1.11-40.58-.05-17.15,1.29-34.25.65-51.42-.37-9.86,1.06-19.74,1-29.66,0-3.56.1-7.13-.18-10.69.13-1.66.78-3.36-.3-4.93-2.36,1.76-1.68,4.88-2.24,7.2-1.83,7.46-2.69,15.19-4,22.8-.9,5.39-1.85,10.77-2.77,16.16-.78,1.89-.39,4.14-1.56,5.92-1.21,7.88-2.17,15.8-4,23.58-1.37,5.76-2,11.72-3,17.6-1.44,8.74-3.5,17.34-4.67,26.16s-2.69,17.53-4.49,26.19c-2.09,10.06-3.69,20.21-5.46,30.34-2.11,12.06-4.6,24-6.73,36.11-.39,2.21-.44,3.32-3.1,3.21-4-.16-6.69,4-10.75,4.73-2.92.49-5.64,2.39-8.45,3.66-.95,1.41-2.59.86-3.77,1.6-2,3-6.09,1.81-8.21,4.66-1.67-.41-2.94.67-4.32,1.33-2.51,2.1-3.49.21-3.82-2-1.45-9.74-4-19.25-5.65-29-.86-4.95-2.16-10-3.25-15-.26-1.38-1.19-2.58-.9-4.1-1.75-3.38-.79-7.56-2.75-10.88-.87-1.48.38-3.48-1-4.84-3.09-16.34-7.18-32.44-10.08-48.84-1.89-10.67-4.67-21.15-7.2-31.68-.29-1.21.77-2.5-.39-3.51-.45-1.23-.92-2.46-.38-3.81-2.46-6.24-3.26-12.93-4.5-19.51-.42-2.24-.74-4.54-2-6.52a2.13,2.13,0,0,1-.54-1.21c-.45.28-.1.74-.22,1.11a7.21,7.21,0,0,0-.27,2.27c.49,18.38.54,36.78,1,55.13.38,13.52.25,27.06.86,40.58.69,15.22.74,30.48,1,45.73.32,18.21.06,36.45,1,54.61.77,15-.15,30,.94,44.89.72,9.81.64,19.61.42,29.44a3.71,3.71,0,0,1-2.2,3.69c-8.84,4-17.8,7.8-26.69,11.56-7.52,3.18-15,6.83-22.74,9.41a2.54,2.54,0,0,1-1.39-2.32c0-1.31,0-2.62,0-3.92V481.14C528.47,479.5,528.43,477.87,528.57,476.24Z" transform="translate(-85.71 -195.14)"/><path class="cls-2" d="M382.11,963.49a81,81,0,0,1-29.77,6.06c-8.67.08-16.5-1.88-23.83-8.3-10.48-9.2-14.19-21.08-16.27-34.62-3.17-20.62-1.75-41.33-1.79-62q-.27-152.31-.08-304.61c0-9.8,0-9.85,7.93-11.58,13.73-3,27.11-7.36,40.47-11.79,4.35-1.45,5-1.11,5,3.67q0,172.88-.08,345.75c0,5.18.83,10.16,1.44,15.19.49,4.12,8.9,10.05,12.91,9.56a40.54,40.54,0,0,0,9.08-2c7.59-2.79,15.61-4.31,23-7.52,6-2.6,12-6.14,15-13.13.53-1.24,1.55-1.94,1.95-3.17.47-1.93,1.39-3.72,1.54-5.76,1.71-5.15,1.6-10.52,1.6-15.88q0-173.57,0-347.12c0-3,.62-3.9,3.57-4.93,4.23-1.47,8.62-2.66,12.76-4.81a98.88,98.88,0,0,1,17.69-6.75c5.19-1.53,9.86-4.36,15-6.07,4.5-1.5,4.65-1.66,4.65,3.61q0,83.47,0,167c0,58.59-.11,117.17.09,175.76.05,13.1-.58,26.13-3.31,38.77-3.77,17.45-10.95,33.33-22.56,46.48-.51.58-1,1.21-1.45,1.82-1.15.89-2,2.16-3.4,2.71-3.28,5-8.45,7.43-13,10.5a76.32,76.32,0,0,1-20,9.76c-7,2.2-13.79,5-20.7,7.51-3.73,1.32-7.53,2.44-11.29,3.65C386.27,962.17,384,962.34,382.11,963.49Z" transform="translate(-85.71 -195.14)"/><path class="cls-2" d="M1266.72,641.1c-7.24,2.36-14.69,2.91-22.19,3.42-5.76.4-11.45,1.81-17.16,2.88-2.33.43-4.61-.16-7,.44a64.42,64.42,0,0,1-28.37.75c-6.86-1.39-14.15-3.32-19.24-8.91-4.2-4.62-8.63-9-11.35-15.45-3-7.06-4.5-14.48-6.13-21.76a56,56,0,0,1-1-13.43c.27-9,0-18-.38-27-.15-3.24,1.37-3.81,3.54-4.21,9.14-1.7,18.12-4.21,27.38-5.43,6.3-.83,12.6-2.53,18.91-3.77,2.68-.53,3.84,0,3.75,3.31-.21,8.1-.45,16.23-.07,24.32.34,7.24,6.26,16.92,15.38,17.45,7.21.43,14.15-.63,21.07-1.78,8.22-1.36,14-6,16.75-16.23,1-3.75.89-7.26.88-11-.08-26.89,0-53.77,0-80.66,0-3.48-2.56-5.83-4.27-8.51-2.67-4.17-7.33-4.92-10.89-7.59-6.32-4.76-14-6.56-20.86-10.11-9.15-4.71-18.45-9.2-27.85-13.18-6.46-2.73-12.87-5.65-19.37-8.3a9.21,9.21,0,0,1-2.46-1.34c-5.53-2-10.43-5-13.75-10.42-1.21-1.5-2.75-2.78-2.81-5-2.74-4.09-3.46-8.72-3.88-13.7-2.82-33.32-.63-66.7-1.29-100a168.28,168.28,0,0,1,.39-18.27c1.08-12,3.41-23.91,8.71-34.79.13-.26.47-.4.7-.6.86-1.19.65-3,2-3.91a89.32,89.32,0,0,1,11.38-15.24c6.68-7.33,15.11-11,23.49-14.38a82,82,0,0,1,21.42-4.94c8.79-1,17.69-1.49,26.35-3.14a71.64,71.64,0,0,1,18.27-.74c14.48.94,27.24,6.64,36.18,19.64,5.35,7.79,8.33,16.69,10.16,26.45,4,21.25,2.2,42.62,2.75,63.93.05,1.76-.06,2.1-2.28,2.41-8,1.12-16.07.21-24,.9s-16,1.07-24,2.23c-2.91.42-4.37-.16-4.21-4,.52-12-.12-24,.47-36.11.48-9.72-3.67-19.79-15.41-21a53.76,53.76,0,0,0-23.82,3.07c-12.62,4.51-15.23,15.91-15.18,28.65.1,24.13.43,48.26.15,72.38,0,4.65,1.89,8.32,2.71,12.47.51,2.54,3.87,3.08,5.87,4.29,7,4.22,14.15,8.37,21.67,11.22,11.69,4.44,22.75,10.37,33.93,15.93s22.62,11.47,32.29,19.74c8.18,7,10.58,18.08,11.09,29.37,1.53,33.94.53,67.9.64,101.85a143.07,143.07,0,0,1-4.75,35.88c-2.59,10.21-8.08,17.86-14.44,25.38-7,8.29-16.24,11.76-25.45,15.53C1269.75,640.93,1268.05,640.07,1266.72,641.1Z" transform="translate(-85.71 -195.14)"/><path class="cls-2" d="M1049.44,556.93c-1.31-8.39-4.3-16.31-5.24-24.9-.51-4.72-2.11-9.6-3.43-14.35-.47-1.7-.75-1.25-2.28-.87-6.42,1.61-12.37,4.91-18.93,5.88-2,1.49-4.53,1.59-6.61,2.87-4.5.32-4.86,3.16-4.85,7.49.18,53.38.09,106.75.16,160.13,0,5.39.37,9.42-6.4,11.51C986.09,709.56,970.73,716,954.78,722V295.34c0-7.73-.17-8.48,6.24-10.13,6.14-1.57,11.86-4.15,17.72-6.38,11.49-4.37,23.28-7.74,34.74-12.11,14.09-5.37,28.59-9.14,42.75-14.06,6.68-2.32,13.53-4.6,20.12-4.91,11.58-.54,23.42,1,31.56,12.25a20,20,0,0,0,1.84,2c1.37.93,1.61,2.8,2.74,3.93,3.18,5.18,4.69,10.9,5.83,17,4.38,23.44,2.62,47.13,2.9,70.73.22,19.09.3,38.19,0,57.28a185.64,185.64,0,0,1-5.44,43.2,77.31,77.31,0,0,1-25,40.62c-2.72,2.33-1.29,4.73-.68,6.46,2.83,8.14,3.34,16.81,5.37,25.12,2.71,11.15,4.85,22.47,7.33,33.69,2.68,12.08,5.17,24.22,8.09,36.22,2.87,11.82,5.1,23.81,8.32,35.56,2.39,8.73,2.95,18.12,5.64,26.92.22.74.36,1.64.48,2.27.53,2.83,1.77,5.93-3,6.93-9.86,2.08-19.59,4.85-29.28,7.82-5.19,1.59-10.39,4-16.06,4-1.35,0-2.21.61-2.24-1.41-.13-8.19-3.19-15.75-4.38-23.75-1.38-9.34-4-18.47-6-27.71-1.88-8.59-3.67-17.21-5.51-25.81-2-9.4-4-18.82-6.11-28.18-.87-3.76-.61-7.83-2.59-11.29C1049.31,560.11,1050.21,558.38,1049.44,556.93Z" transform="translate(-85.71 -195.14)"/><path class="cls-2" d="M215.18,975.27c-3.07-15-5.9-30.14-9.24-45.06-3-13.47-5.5-27.09-8.78-40.51-2.07-8.49-2.75-17.56-4.74-26.06-2.2-9.45-4-19-6.3-28.46-1.69-6.82-1.56-6.8-8.15-6q-10.5,1.26-21,2.33c-3.07.31-4.37,1.46-4.36,5.33.15,55,0,110,.28,165,0,5.55-2.39,6.59-5.92,6.52-10.13-.18-20.18,1.17-30.22,2-6.06.52-12.13-.3-17.93.93v-6.45q0-210.84-.06-421.68c0-4.3.11-6.68,5.28-6.29,11.23.85,22.47-1.1,33.67-1.79,7.61-.48,15.5-1,23.21-2.85,5-1.21,10.55-1.24,15.85-1.71s10.68-1.64,16-2.46,10.52-1.51,15.76-2.32a60,60,0,0,1,19.6-.13c5.32.93,10.25,2.38,15,5.63a41.36,41.36,0,0,1,14,15.62,59.73,59.73,0,0,1,6.64,23.77c2.08,37.48.5,75,.91,112.54.09,8.22.67,16.54-.18,24.67-1.45,13.66-3.81,27-9.69,39.7-5,10.77-11.67,19.1-20.78,25.59-2.25,1.59-.41,4.62,0,6.11,4.11,14.17,5.77,29,9.95,43.14,1.3,4.4,1.28,9.38,2.83,13.88-.54,1.41,1.26,2.58.34,4,2.41,10.66,4.85,21.3,7.22,32q5,22.33,9.84,44.69c1.67,7.66,3.46,15.31,4.73,23.05.32,1.95,2.82,3.91.93,5.83-2.18,2.24-5.39,2.39-8.19,3-11.29,2.48-22.64,4.58-33.94,7-2.4.52-5.07-.07-7.24,1.83-.46.4-1.05.16-1.25-1.11-.91-5.84-2.15-11.63-3.27-17.43C216.2,977.77,215.08,976.68,215.18,975.27Z" transform="translate(-85.71 -195.14)"/><path class="cls-2" d="M891.48,366.21c-12.41,5.11-25,9.66-37.05,15.82a19.56,19.56,0,0,1-5.23,1.72c-6.51,1.13-6.3,5.61-6.29,10.92.11,41.07.06,82.15.06,123.27,23.38-9.44,46.15-20.1,70.18-28.84,0,17.28,0,34,0,50.72,0,.88.26,1.86-1.06,2.23-6.54,1.79-12.54,5.15-18.83,7.66-11,4.36-21.8,9-32.7,13.48-5.42,2.24-11,4.28-16.25,7.1-2.17,1.16-1.26,3.1-1.27,4.67q-.1,34.51,0,69v70.94l76.34-32c2.29-.69,3.3.07,3.29,2.82-.07,15.32,0,30.63,0,46,0,1.36-.13,2.61-1.25,3.46-10.44,4.33-20.88,8.66-31.26,13.17-10.19,4.41-20.53,8.56-30.9,12.56s-20.36,8.76-30.58,13c-1.64.69-2.64,2.83-4.72,2.34-1.47.73-3.07,1.07-4.5,1.89-3.08,0-5.6,2.11-8,3.47-6.79,3.78-13.93,6.35-21.51,9v-5.12q0-211.78-.08-423.57c0-3.54.63-5.41,3.89-6.68,8.88-3.48,17.64-7.37,26.42-11.15,6.67-2.88,13.31-5.84,20-8.76,1.37-1.19,3.09-1.28,4.67-1.79,10.67-4.91,21.24-10.06,32.21-14.2,6.67-2.51,13.13-5.64,19.71-8.42a9.21,9.21,0,0,1,2.59-.35c1.13-1.62,3.05-1.44,4.5-2.34,5.12-2.89,10.75-4.26,16.13-6.38,1.4-.56,2.93-1.4,2.9,1.86-.17,15.62-.13,31.24,0,46.85,0,2.18-1,2.72-2.48,3.32q-13,5.43-26.06,10.91A5.9,5.9,0,0,0,891.48,366.21Z" transform="translate(-85.71 -195.14)"/><path class="cls-3" d="M1060,310.21c4.6,3.8,6.48,9,6.5,15.11.11,33.57,0,67.14.48,100.7.12,8.07-.54,16.07-3.72,22.83a30.32,30.32,0,0,1-17.58,15.91c-9.86,3.42-19.74,6.78-29.61,10.17l-7.87,2.72v-65.3c0-28.55.13-57.11-.13-85.66,0-4.77,1.48-6.34,5.41-7.54,8.9-2.72,17.56-6.37,26.46-9.08,5.67-1.72,11.5-4,17.53-1.29A18,18,0,0,0,1060,310.21Z" transform="translate(-85.71 -195.14)"/><path d="M1053.84,433.67c-2.19,5.83-6,10.27-10.91,12.38-6.13,2.67-12.27,5.28-18.4,7.92-1.57.67-3.14,1.35-4.89,2.12V405.27c0-22.22.08-44.44-.08-66.66,0-3.71.92-4.93,3.36-5.87,5.53-2.11,10.91-4.95,16.44-7.06,3.52-1.34,7.14-3.14,10.89-1a10.27,10.27,0,0,0,1.57,1.12c2.86,3,4,7,4,11.75" transform="translate(-85.71 -195.14)"/><ellipse class="cls-4" cx="93.94" cy="497.3" rx="75.94" ry="86.11"/><path class="cls-5" d="M171.38,778.05a6.48,6.48,0,0,1-1.18-3.73,14.47,14.47,0,0,1,.55-5.15,5.45,5.45,0,0,0-2.3,4.46,10.42,10.42,0,0,0,.1,2c.11,1.1.28,2.07,1.55,2a.39.39,0,0,1,.39.39" transform="translate(-85.71 -195.14)"/><path class="cls-6" d="M178.49,606.33a66.58,66.58,0,0,1,3.31,8.78,13,13,0,0,0,3.25,5.28,8.55,8.55,0,0,1-4.79-2.69,18.48,18.48,0,0,1-3.11-5.15,29,29,0,0,0-3.15-6.11c.73-.28,1.43,0,2.06-.3C176.86,606.36,177.71,605.84,178.49,606.33Z" transform="translate(-85.71 -195.14)"/><path class="cls-7" d="M243.84,645.81l.67,1.39c-3-.44-6.08.42-8.82-2.17,2.51-.29,4.75-.5,7-.54.46,0,.47.52.76.69A1.14,1.14,0,0,0,243.84,645.81Z" transform="translate(-85.71 -195.14)"/><path class="cls-7" d="M107.47,665.08c.13,0,.32-.26.33.08.12,3.37,1.69,5.91,3.79,8.35a7.9,7.9,0,0,1-4.48-1.91,2.06,2.06,0,0,1-.64-2.58,3.54,3.54,0,0,0,.18-.81A18.72,18.72,0,0,0,107.47,665.08Z" transform="translate(-85.71 -195.14)"/><path class="cls-6" d="M174.41,778.45c-.26-.58,0-1.11.11-1.65a91.35,91.35,0,0,1,2.65-9.87,22.55,22.55,0,0,0,.84-11.61,31.7,31.7,0,0,0-1.07-3.6c3.34,3,4.36,7.07,4,11.71-.22,2.8-.87,5.52-1.3,8.28a7.33,7.33,0,0,0-.07,1.94c.35-.7.67-1.42,1-2.11,1.37-2.59,3.09-4.91,4.66-7.35,3.11-4.86,3.52-10.24,2.65-15.92a17.6,17.6,0,0,0-1.62-5.23,8.49,8.49,0,0,1,3.4,4.32c2.44,6.37,2.34,12.58-1,18.6-1.75,3.17-3.87,6-5.6,9.2a11.9,11.9,0,0,0-1.33,2.92c-.13.59-.55.47-.91.47Z" transform="translate(-85.71 -195.14)"/><path class="cls-6" d="M106.55,716.12l-.77-3.5c.71.78,1.29,1.47,2.21,1.33a5,5,0,0,0,2.29-1.16,12.49,12.49,0,0,0,2-1.92,8.62,8.62,0,0,1,7.62-3.32c1.6.1,3.19.19,4.79.17a12.76,12.76,0,0,0,7.78-2.81c-.19,1.81-2,3.78-3.2,4.58a17.78,17.78,0,0,1-6.81,2.18c-2.12.37-4.31.42-6.29,1.56a3.48,3.48,0,0,0-1.42,1.35,8.43,8.43,0,0,1-5.75,4.5c-.25,0-.5,0-.75,0-.62.1-1-.12-1.11-.88S106.75,716.82,106.55,716.12Z" transform="translate(-85.71 -195.14)"/><path class="cls-6" d="M252,719.59l-2,5.94a16.17,16.17,0,0,0-1.71-3.77,6.16,6.16,0,0,0-4.37-2.79c-2.27-.23-3.65-1.66-4.5-3.91a45.51,45.51,0,0,1-1.9-9.08,33.9,33.9,0,0,0-.91-4.46,5.46,5.46,0,0,0-1.51-2.58,5.2,5.2,0,0,1,3.42,3.21c1,2.45,1.17,5.13,1.65,7.73.12.66.22,1.33.39,2,.54,2.11,1.6,3.52,3.7,3.75a17.46,17.46,0,0,1,3.28.87,4.82,4.82,0,0,1,2.5,2.2c.52-3.9-1.39-7.25-5.54-9.79,2.95-.34,5,.31,6.18,2a11.48,11.48,0,0,1,1.73,4.87,3.82,3.82,0,0,0,.15.48C252.72,717.42,252.16,718.46,252,719.59Z" transform="translate(-85.71 -195.14)"/><path class="cls-6" d="M104.7,706.7c-.69-1.89.2-3.1,1.38-4.23a7.44,7.44,0,0,1,7.53-2c1.24.33,2.49.66,3.74,1a6.34,6.34,0,0,0,4.74-.44,3,3,0,0,1-1.53,2.53,7.75,7.75,0,0,1-5.31.87,9.72,9.72,0,0,0-9.72,5.15c-.13.25-.21.31-.4.13C105,708.66,104.84,707.68,104.7,706.7Z" transform="translate(-85.71 -195.14)"/><path class="cls-6" d="M220.63,765.12c-.16,0-.47.32-.34-.21.83-3.43,2-6.66,4.52-9a14.93,14.93,0,0,0,5-9.09,11,11,0,0,0-.41-5.24c-.1-.28-.32-.55-.2-.9,2.91,3.46,3.26,8.94.85,13.26a15.36,15.36,0,0,1-3.76,4.56,7.57,7.57,0,0,0-2.42,3.82,9.09,9.09,0,0,1-2.31,2.08C221.25,764.66,220.94,764.89,220.63,765.12Z" transform="translate(-85.71 -195.14)"/><path class="cls-6" d="M156,774.36,152.88,773c1.77-1.21,3.5-2.33,5.18-3.56,2.48-1.81,4.87-3.75,6.39-6.75a11.13,11.13,0,0,0,1-2.88c.43,2.61-.64,6.79-2.33,9.32a18.08,18.08,0,0,1-4.6,4.63c-.32.23-.61.49-.91.74C157,774.89,156.52,774.39,156,774.36Z" transform="translate(-85.71 -195.14)"/><path class="cls-6" d="M145.35,769.24a18.25,18.25,0,0,1,3.45-7.33c2.06-2.37,4.28-2.56,6.7-.56-4.41.92-5.59,4.86-6.56,9a1.77,1.77,0,0,1-.23.79A30,30,0,0,1,145.35,769.24Z" transform="translate(-85.71 -195.14)"/><path class="cls-6" d="M253.91,711.69c-.6-1.56-.86-3.26-1.58-4.79-2.3-4.88-5.8-7.86-10.8-8.84a8.26,8.26,0,0,1,4.93.1c4,1.33,6.57,4.44,8.19,8.69C254.6,708.5,254.1,710.06,253.91,711.69Z" transform="translate(-85.71 -195.14)"/><path class="cls-7" d="M170.49,778c-.05,0-.1-.1-.16-.11-1.77-.36-1.77-.36-2-2.4-.43-3.3.58-5.75,3-7a26.43,26.43,0,0,0-.85,4,12.91,12.91,0,0,0,1,5.53Z" transform="translate(-85.71 -195.14)"/><path class="cls-6" d="M235.19,751.49c-.53.36-.41,0-.3-.35a30.1,30.1,0,0,0,.94-4.53,7.41,7.41,0,0,0-.25-3.65,3.4,3.4,0,0,0-.87-1.24,3.26,3.26,0,0,1,3.32,3.35c0,.78-.1,1.55-.15,2.32-.1,1.17-1,1.77-1.52,2.6C236,750.52,235.58,751,235.19,751.49Z" transform="translate(-85.71 -195.14)"/><path class="cls-8" d="M155.51,674.3c0-24,17.26-44,39.25-43.72,21.19.32,38.19,19.88,38.13,44s-17.35,44-39,43.76C172.45,718.18,155.38,698.46,155.51,674.3Z" transform="translate(-85.71 -195.14)"/><path class="cls-6" d="M127.68,755.29l-1.55-1.54a20.76,20.76,0,0,0,2.81-1.17,7.69,7.69,0,0,0,3.86-4.8c1.14-3.59,2.29-4.77,5.5-6a7.29,7.29,0,0,0-2.24,3.87c-.13.8-.19,1.61-.33,2.41a13.22,13.22,0,0,1-2.58,5.6c-.14.18-.26.38-.49.7a6.83,6.83,0,0,0,4.09-3.19c.9-1.32,1.71-2.72,2.63-4,2.15-3.07,4.33-3.8,7.63-2.65a20.26,20.26,0,0,0,4.07,1.22,4,4,0,0,0,3.46-1.26,67.45,67.45,0,0,0,4.71-5.65c1.58-1.86,3.27-3.57,5.78-3.49a5.79,5.79,0,0,1,1.37.26c-3.5,1.67-5.24,5.16-7.11,8.52-1.46,2.63-3.13,5-6,5.7a7.65,7.65,0,0,1-4.63-.29l-3.37-1.28c-1-.37-1.61.08-2.18.93A57.13,57.13,0,0,1,139,755a16.08,16.08,0,0,1-5.55,4.23,1.59,1.59,0,0,1-2.18-.44,8.47,8.47,0,0,0-1.09-1A5.91,5.91,0,0,1,127.68,755.29Z" transform="translate(-85.71 -195.14)"/><path class="cls-6" d="M121.84,748.37c-.62-.89-1.2-1.82-1.87-2.65a1.15,1.15,0,0,1,0-1.56,8.9,8.9,0,0,1,4.62-3.66c1.48-.55,3-.92,4.49-1.52a14.23,14.23,0,0,0,7.8-8.29c.59-1.44,1-3,1.51-4.46a11.7,11.7,0,0,1,6.11-7.25c1.21-.6,2.43-1.15,3.66-1.68a10.37,10.37,0,0,0,4.16-2.72,8.93,8.93,0,0,1-2.18,4,23.46,23.46,0,0,1-4,3.36,9.75,9.75,0,0,0-4.29,7.33,16,16,0,0,1-3.59,9.05,23.68,23.68,0,0,1-6.63,5q-1.73.94-3.51,1.77a11.14,11.14,0,0,0-5.15,4.71C122.32,749.57,122.08,749,121.84,748.37Z" transform="translate(-85.71 -195.14)"/><path class="cls-6" d="M111.79,655.4a1.11,1.11,0,0,1-.17-1.53c.32-.59.54-1.25.81-1.88l1.43-2.69a20.29,20.29,0,0,0,2.45,3.23c2.88,2.93,6.24,3.34,9.84,2.27,3.12-.92,5.67-3.1,8.43-4.82a21.14,21.14,0,0,1,5.56-2.78c2.48-.65,4.71.74,5.59,3.61-1.41-1.52-2.94-1.34-4.49-.65a34.83,34.83,0,0,0-7.13,4.91c-2.66,2.11-5.34,4.08-8.68,4.48C120.41,660.16,115.75,659.26,111.79,655.4Z" transform="translate(-85.71 -195.14)"/><path class="cls-6" d="M109.67,658.58l1.46-3.48a13.83,13.83,0,0,0,.71,2.42,7,7,0,0,0,5.6,5.15,13.34,13.34,0,0,0,3.94.1c3.44-.35,6.6.85,9.7,2.39a37.29,37.29,0,0,0,7.15,3.17c.33.09.67.15,1.18.27a7.62,7.62,0,0,1-2.94,1.16,6.85,6.85,0,0,1-4.24-.49,23.34,23.34,0,0,0-13-1.69,10.86,10.86,0,0,1-7.47-1.5,7.4,7.4,0,0,1-2.35-2.55,3.25,3.25,0,0,1-.27-3.46A10,10,0,0,0,109.67,658.58Z" transform="translate(-85.71 -195.14)"/><path class="cls-6" d="M215.82,734.16c2.49,1.78,3.41,4.64,2.67,8.4-.48,2.45-1.07,4.88-1.61,7.32a11.72,11.72,0,0,0,.34,5.64,89.63,89.63,0,0,1,2.34,9.4c.1.69,0,1-.57,1.3s-1.24,1.19-1.77,1-.48-1.32-.69-2a70.89,70.89,0,0,1-1.92-7.56,24.51,24.51,0,0,1,.65-10.19c.47-1.87,1-3.73,1.32-5.64C217.06,739.13,217.17,736.58,215.82,734.16Z" transform="translate(-85.71 -195.14)"/><path class="cls-6" d="M148.1,613.83l2.43-1.16a2.35,2.35,0,0,0,.61-.24c1.66-1.24,3.27-.85,4.94,0a15.36,15.36,0,0,1,5.23,4.06,9.64,9.64,0,0,1,1.77,8.39c-.33-.88-.58-1.71-.93-2.48-1.7-3.64-4.61-5.48-7.88-6.75a27.78,27.78,0,0,0-6-1.49C147.91,614.15,147.74,614.13,148.1,613.83Z" transform="translate(-85.71 -195.14)"/><path class="cls-6" d="M153.19,628.58c-4,1.22-6.56-.09-8.58-4.05-1.1-2.18-1.85-4.57-3.19-6.71,1.08-.66,2.16-1.29,3.21-2,.42-.27.58-.08.82.29a15.14,15.14,0,0,1,1.8,5.1C148,624.8,149.55,627.57,153.19,628.58Z" transform="translate(-85.71 -195.14)"/><path class="cls-6" d="M215.62,768.17c-1.8,1.23-3.48,2.41-5.67,2.36-3-.07-3.66-1.81-3.2-4.72A20.79,20.79,0,0,1,207.9,762a7.9,7.9,0,0,0-.15-6.83c1.3.62,2.05,1.93,2.32,3.94a22,22,0,0,1,.1,5.32c-.28,2.71,1,3.27,2.6,3.45Z" transform="translate(-85.71 -195.14)"/><path class="cls-6" d="M117.68,642.36l1.87-2.8a43.21,43.21,0,0,1,6.48,1.1,37.33,37.33,0,0,0,9,.62,7,7,0,0,1-2.72,1.55c-3,1.08-6.07.92-9.14.72-2-.13-3.94-.1-6-.13Z" transform="translate(-85.71 -195.14)"/><path class="cls-6" d="M247.88,654c-3.1-.52-5.64,1-8.3,2a9.19,9.19,0,0,1-3.21.72c-1.66,0-2.68-.87-3.28-2.77,2.92.72,5.39-.82,7.92-2a19.4,19.4,0,0,1,4.17-1.6,1,1,0,0,1,1.35.71C246.91,652,247.38,652.92,247.88,654Z" transform="translate(-85.71 -195.14)"/><path class="cls-6" d="M103.71,691.74c1.63-1.62,3.46-1.32,5.3-.68,1.37.48,2.72,1,4.08,1.53a5.77,5.77,0,0,0,2.91.21,9.79,9.79,0,0,1-4.41,2.13,7.87,7.87,0,0,1-3.45.07c-1.87-.38-3.17.68-4.24,2.4-.27-.65,0-1.33-.26-1.87a.64.64,0,0,1-.23-.44A12.56,12.56,0,0,1,103.71,691.74Z" transform="translate(-85.71 -195.14)"/><path class="cls-6" d="M252.3,667.39c.41.22.43.71.59,1.11a26.76,26.76,0,0,1,.58,3,13.56,13.56,0,0,1-4.66-3,44.86,44.86,0,0,0-3.82-3.09,4.3,4.3,0,0,0-4.12-.76,2.84,2.84,0,0,1,3.5-2.26,11.61,11.61,0,0,1,3.46,1.86A29.47,29.47,0,0,0,252.3,667.39Z" transform="translate(-85.71 -195.14)"/><path class="cls-9" d="M195.25,697.9c-13,.07-23.4-11.85-23.29-26.56.1-14.21,10.46-26.73,24.41-26.05,11.77.58,22.11,11.58,22.06,26.52C218.37,686.26,207.94,698,195.25,697.9Z" transform="translate(-85.71 -195.14)"/><path class="cls-10" d="M216.65,666.64c0,2.5-.88,4.24-2.5,4.69a4.61,4.61,0,0,1-3.81-.63,18.74,18.74,0,0,1-8.6-13.65,7.85,7.85,0,0,1,0-2.42c.48-3,2.35-4.31,4.93-3.43s4.6,2.89,6.32,5.24A18.81,18.81,0,0,1,216.65,666.64Z" transform="translate(-85.71 -195.14)"/></svg>