<?xml version="1.0" standalone="no"?>
<!DOCTYPE svg PUBLIC "-//W3C//DTD SVG 20010904//EN"
 "http://www.w3.org/TR/2001/REC-SVG-20010904/DTD/svg10.dtd">
<svg version="1.0" xmlns="http://www.w3.org/2000/svg"
 width="1440.000000pt" height="1440.000000pt" viewBox="0 0 1440.000000 1440.000000"
 preserveAspectRatio="xMidYMid meet">
<metadata>
Created by potrace 1.14, written by Peter Selinger 2001-2017
</metadata>
<g transform="translate(0.000000,1440.000000) scale(0.100000,-0.100000)"
fill="#000000" stroke="none">
<path d="M7708 14395 c-1 -2 -61 -6 -133 -10 -71 -3 -146 -8 -165 -10 -19 -2
-75 -7 -125 -10 -49 -4 -97 -8 -105 -10 -8 -1 -46 -6 -85 -9 -68 -7 -124 -13
-175 -21 -14 -2 -50 -7 -80 -10 -30 -3 -62 -8 -70 -10 -8 -2 -39 -7 -69 -10
-30 -4 -63 -9 -75 -11 -11 -2 -38 -6 -61 -9 -42 -6 -77 -12 -110 -19 -11 -2
-40 -7 -65 -11 -25 -4 -54 -9 -65 -11 -11 -2 -32 -6 -47 -9 -83 -15 -238 -47
-268 -55 -19 -5 -48 -11 -65 -13 -16 -3 -88 -19 -160 -37 -71 -18 -137 -34
-145 -35 -8 -2 -15 -4 -15 -5 0 -1 -7 -3 -15 -5 -105 -23 -368 -101 -556 -165
-82 -28 -153 -52 -159 -53 -5 -1 -23 -8 -40 -14 -16 -7 -79 -31 -140 -53 -60
-23 -123 -48 -140 -55 -16 -7 -52 -22 -80 -33 -27 -11 -72 -31 -100 -43 -27
-13 -52 -24 -55 -24 -67 -13 -699 -344 -895 -469 -27 -18 -88 -57 -135 -87
-193 -123 -535 -371 -626 -454 -6 -5 -28 -23 -49 -40 -21 -16 -43 -35 -49 -40
-6 -6 -63 -55 -126 -109 -296 -255 -757 -751 -990 -1066 -14 -18 -34 -45 -46
-59 -38 -47 -154 -211 -230 -325 -41 -61 -78 -115 -82 -121 -21 -28 -178 -287
-246 -405 -42 -74 -83 -146 -92 -160 -18 -32 -185 -370 -212 -430 -10 -25 -28
-65 -39 -90 -11 -25 -44 -106 -73 -180 -29 -74 -57 -144 -61 -155 -49 -115
-200 -628 -223 -760 -3 -16 -10 -45 -15 -63 -5 -18 -10 -36 -10 -40 -1 -7 -10
-56 -17 -97 -42 -218 -73 -433 -89 -615 -4 -36 -8 -83 -10 -106 -14 -157 -20
-351 -20 -699 0 -355 3 -451 20 -625 3 -25 7 -70 10 -100 6 -73 13 -124 31
-245 21 -142 31 -198 64 -361 13 -59 59 -245 69 -274 5 -14 17 -52 26 -85 170
-603 480 -1294 813 -1815 116 -182 370 -542 401 -570 4 -3 33 -39 66 -80 32
-41 61 -77 64 -80 4 -3 31 -34 61 -70 30 -36 57 -67 60 -70 3 -3 43 -48 90
-100 225 -251 481 -491 855 -799 18 -15 232 -177 300 -228 71 -52 419 -286
515 -345 656 -404 1280 -686 1955 -883 153 -44 357 -98 436 -114 24 -5 103
-21 174 -36 72 -15 139 -28 150 -31 38 -8 140 -26 165 -29 14 -2 39 -6 55 -9
17 -3 48 -7 70 -10 22 -3 72 -10 110 -15 39 -6 93 -13 120 -16 28 -3 64 -8 80
-10 17 -2 62 -7 100 -10 39 -4 86 -8 105 -10 19 -2 76 -7 125 -10 50 -3 113
-8 140 -10 317 -26 1284 -27 1490 0 17 2 68 6 115 9 95 7 102 8 325 36 140 17
261 36 452 70 74 13 306 64 448 99 446 110 986 292 1350 456 33 15 92 41 130
58 226 101 643 323 845 452 196 124 486 323 563 385 7 5 73 58 147 116 155
123 219 176 345 288 128 115 486 470 580 577 44 50 85 97 92 104 45 47 162
225 199 300 60 124 76 189 79 325 4 141 -12 224 -65 338 -34 72 -114 186 -152
217 -7 6 -33 27 -58 47 -65 52 -182 112 -275 141 -171 53 -349 52 -519 -4
-207 -69 -338 -168 -609 -463 -147 -159 -298 -310 -350 -349 l-49 -36 -56 25
c-31 14 -67 30 -80 35 -65 26 -400 199 -515 266 -300 176 -649 437 -792 591
-22 24 -91 97 -153 162 -103 106 -152 164 -152 181 0 3 10 10 23 16 34 16 269
186 382 276 163 132 241 202 415 376 437 439 913 1077 1016 1362 36 102 49
234 31 346 -8 55 -43 157 -70 206 -12 22 -28 50 -35 64 -15 27 -120 136 -172
177 -52 41 -225 122 -305 142 -79 20 -265 27 -341 13 -82 -15 -185 -50 -264
-90 -168 -84 -241 -150 -790 -719 -428 -443 -501 -514 -665 -645 -235 -187
-608 -384 -875 -463 -159 -47 -282 -78 -390 -97 -206 -38 -590 -54 -780 -34
-41 4 -100 11 -130 14 -44 5 -240 42 -320 60 -36 8 -200 58 -255 77 -312 108
-628 290 -875 504 -171 148 -680 661 -866 874 -182 209 -389 383 -525 443 -86
39 -87 39 -176 63 -35 9 -61 19 -58 23 2 4 6 29 9 57 4 27 8 60 11 74 5 27 11
63 20 125 3 23 8 52 10 65 3 14 8 45 11 70 3 25 8 54 10 65 3 11 11 54 19 95
55 278 120 505 186 648 33 72 59 103 59 71 0 -6 13 -44 30 -86 91 -227 279
-401 515 -478 151 -49 360 -55 518 -15 133 34 319 127 421 211 6 5 29 23 51
40 22 16 47 35 55 42 395 321 642 465 952 557 110 33 118 35 228 55 137 24
164 27 330 30 146 3 208 -1 340 -19 48 -7 203 -41 270 -59 160 -45 459 -176
585 -257 120 -78 224 -153 375 -271 310 -242 431 -303 680 -344 46 -8 197 -8
240 -1 82 14 99 19 170 42 443 143 640 619 437 1055 -60 130 -177 261 -407
459 -47 40 -85 79 -85 85 0 31 330 356 540 532 254 213 230 193 320 259 178
129 381 248 648 381 104 52 198 98 210 103 12 4 47 19 77 33 l56 25 39 -35
c81 -72 199 -179 235 -213 223 -212 362 -310 522 -370 193 -71 399 -83 591
-34 69 17 226 91 271 126 141 113 219 220 271 374 22 66 26 91 29 194 6 195
-36 305 -203 530 -55 74 -65 87 -170 204 -157 177 -387 388 -762 699 -102 85
-477 360 -624 459 -161 108 -394 254 -497 311 -26 15 -84 47 -128 72 -334 189
-792 396 -1190 538 -202 72 -472 156 -600 187 -19 5 -71 18 -115 29 -44 12
-109 28 -145 35 -181 40 -248 55 -280 60 -19 3 -46 8 -60 10 -74 14 -261 46
-300 50 -25 4 -54 8 -65 10 -11 2 -49 7 -85 11 -36 4 -73 9 -82 10 -9 2 -52 7
-95 10 -43 4 -85 8 -93 10 -8 1 -62 6 -120 10 -58 4 -121 10 -140 12 -44 5
-927 13 -932 8z"/>
</g>
</svg>
